# Blender v2.78 (sub 0) OBJ File: 'skyBox.blend'
# www.blender.org
mtllib skyBoxobj.mtl
o Cube
v 10.000000 10.000000 -10.000000
v 10.000000 -10.000000 -10.000000
v -10.000001 -9.999998 -10.000000
v -9.999996 10.000004 -10.000000
v 10.000005 9.999994 10.000000
v 9.999993 -10.000007 10.000000
v -10.000004 -9.999997 10.000000
v -9.999999 10.000000 10.000000
vt 0.9999 0.6666
vt 0.7499 0.6666
vt 0.7499 0.3334
vt 0.9999 0.3334
vt 0.2500 0.6666
vt 0.2500 0.3334
vt 0.4999 0.3334
vt 0.4999 0.6666
vt 0.0000 0.6666
vt 0.0000 0.3334
vt 0.2500 0.0001
vt 0.4999 0.0001
vt 0.4999 0.9999
vt 0.2500 0.9999
vn -0.0000 0.0000 1.0000
vn -0.0000 0.0000 -1.0000
vn -1.0000 0.0000 -0.0000
vn 0.0000 1.0000 0.0000
vn 1.0000 -0.0000 0.0000
vn -0.0000 -1.0000 -0.0000
usemtl Material
s off
f 1/1/1 4/2/1 3/3/1 2/4/1
f 5/5/2 6/6/2 7/7/2 8/8/2
f 1/9/3 2/10/3 6/6/3 5/5/3
f 2/11/4 3/12/4 7/7/4 6/6/4
f 3/3/5 4/2/5 8/8/5 7/7/5
f 5/5/6 8/8/6 4/13/6 1/14/6
